<svg width="25" height="25" viewBox="0 0 25 25" fill="none" xmlns="http://www.w3.org/2000/svg">
<path d="M4.6875 3.125H7.03125V2.34375C7.03125 2.13655 7.11356 1.93784 7.26007 1.79132C7.40658 1.64481 7.6053 1.5625 7.8125 1.5625C8.0197 1.5625 8.21842 1.64481 8.36493 1.79132C8.51144 1.93784 8.59375 2.13655 8.59375 2.34375V3.125H16.4062V2.34375C16.4062 2.13655 16.4886 1.93784 16.6351 1.79132C16.7816 1.64481 16.9803 1.5625 17.1875 1.5625C17.3947 1.5625 17.5934 1.64481 17.7399 1.79132C17.8864 1.93784 17.9688 2.13655 17.9688 2.34375V3.125H20.3125C20.7269 3.125 21.1243 3.28962 21.4174 3.58265C21.7104 3.87567 21.875 4.2731 21.875 4.6875V20.3125C21.875 20.7269 21.7104 21.1243 21.4174 21.4174C21.1243 21.7104 20.7269 21.875 20.3125 21.875H4.6875C4.2731 21.875 3.87567 21.7104 3.58265 21.4174C3.28962 21.1243 3.125 20.7269 3.125 20.3125V4.6875C3.125 4.2731 3.28962 3.87567 3.58265 3.58265C3.87567 3.28962 4.2731 3.125 4.6875 3.125ZM17.9688 4.6875V5.46875C17.9688 5.67595 17.8864 5.87466 17.7399 6.02118C17.5934 6.16769 17.3947 6.25 17.1875 6.25C16.9803 6.25 16.7816 6.16769 16.6351 6.02118C16.4886 5.87466 16.4062 5.67595 16.4062 5.46875V4.6875H8.59375V5.46875C8.59375 5.67595 8.51144 5.87466 8.36493 6.02118C8.21842 6.16769 8.0197 6.25 7.8125 6.25C7.6053 6.25 7.40658 6.16769 7.26007 6.02118C7.11356 5.87466 7.03125 5.67595 7.03125 5.46875V4.6875H4.6875V7.8125H20.3125V4.6875H17.9688ZM4.6875 20.3125H20.3125V9.375H4.6875V20.3125Z" fill="#242424" fill-opacity="0.5"/>
</svg>
