<svg width="27" height="27" viewBox="0 0 27 27" fill="none" xmlns="http://www.w3.org/2000/svg">
<path d="M26.6536 25.6587C26.7855 25.7906 26.8597 25.9696 26.8597 26.1562C26.8597 26.3427 26.7855 26.5217 26.6536 26.6536C26.5217 26.7855 26.3427 26.8597 26.1562 26.8597C25.9696 26.8597 25.7906 26.7855 25.6587 26.6536L13.4999 14.4948L1.34111 26.6536C1.20918 26.7855 1.03024 26.8597 0.843653 26.8597C0.657069 26.8597 0.478127 26.7855 0.346192 26.6536C0.214257 26.5217 0.140137 26.3427 0.140137 26.1562C0.140137 25.9696 0.214257 25.7906 0.346191 25.6587L12.505 13.4999L0.346191 1.34111C0.214257 1.20918 0.140137 1.03024 0.140137 0.843653C0.140137 0.657069 0.214257 0.478126 0.346191 0.346191C0.478126 0.214257 0.657069 0.140137 0.843653 0.140137C1.03024 0.140137 1.20918 0.214257 1.34111 0.346191L13.4999 12.505L25.6587 0.346191C25.724 0.280864 25.8016 0.229043 25.8869 0.193688C25.9723 0.158333 26.0638 0.140137 26.1562 0.140137C26.2485 0.140137 26.34 0.158333 26.4254 0.193688C26.5107 0.229043 26.5883 0.280864 26.6536 0.346191C26.7189 0.411519 26.7708 0.489074 26.8061 0.574429C26.8415 0.659783 26.8597 0.751266 26.8597 0.843653C26.8597 0.93604 26.8415 1.02752 26.8061 1.11288C26.7708 1.19823 26.7189 1.27579 26.6536 1.34111L14.4948 13.4999L26.6536 25.6587Z" fill="#242424"/>
</svg>
