<svg width="203" height="66" viewBox="0 0 203 66" fill="none" xmlns="http://www.w3.org/2000/svg">
<g clip-path="url(#clip0_195_66)">
<path d="M90.6994 22.9222C90.7195 21.9784 90.4318 21.0536 89.8796 20.2875C89.3192 19.5244 88.5961 18.8951 87.7626 18.4451C86.8324 17.9388 85.8745 17.485 84.8935 17.0858C83.8429 16.6531 82.7908 16.1857 81.7375 15.6835C80.7305 15.2046 79.77 14.6338 78.8684 13.9782C77.9803 13.3164 77.256 12.4599 76.7514 11.4745C76.1874 10.3659 75.9058 9.13537 75.9316 7.89203C75.9145 6.83494 76.1252 5.78653 76.5496 4.81799C76.9739 3.84945 77.6019 2.98344 78.3909 2.27876C80.0563 0.759774 82.2758 0.000281528 85.0492 0.000281528C86.6875 -0.0103921 88.3135 0.282527 89.8448 0.864178C91.3476 1.44011 92.5288 2.20233 93.3881 3.15084L91.4002 5.91449C89.7607 4.27677 87.7155 3.45791 85.2644 3.45791C83.5949 3.45791 82.2696 3.86052 81.2887 4.66573C80.3077 5.47094 79.8179 6.55047 79.8193 7.90431C79.7988 8.84754 80.0866 9.77173 80.639 10.5369C81.1962 11.2951 81.9205 11.915 82.756 12.3487C83.6868 12.8416 84.6447 13.2818 85.6251 13.667C86.6758 14.0847 87.7278 14.5378 88.7811 15.0263C89.7868 15.4907 90.7473 16.0472 91.6503 16.6886C92.5486 17.348 93.2747 18.2138 93.7673 19.2128C94.3311 20.3529 94.6122 21.6118 94.587 22.8833C94.587 25.359 93.6361 27.344 91.7343 28.8384C89.8899 30.3397 87.5563 31.0903 84.7336 31.0903C82.7684 31.0948 80.8246 30.6832 79.0303 29.8825C77.2145 29.0759 75.9323 27.9677 75.1836 26.5579L77.3006 24.0543C78.1811 25.1821 79.3234 26.0787 80.6288 26.6664C81.9224 27.2927 83.3392 27.6242 84.7767 27.6368C86.4763 27.6368 87.8883 27.2123 89.0127 26.3634C89.5544 25.9716 89.9915 25.4529 90.2856 24.8529C90.5797 24.2529 90.7218 23.5899 90.6994 22.9222Z" fill="#242424"/>
<path d="M33.5358 0.527683H30.3819L18.8542 27.2593H3.67246V0.499023H0V30.7149H21.09L24.9367 21.5642H38.733L42.6268 30.7149H46.5596L33.5358 0.527683ZM26.4061 18.1106L31.8512 5.20337L37.2985 18.1106H26.4061Z" fill="#242424"/>
<path d="M74.1021 30.7149H70.4297V0.499023H74.1021V30.7149Z" fill="#242424"/>
<path d="M0.475453 65.5699H0V35.354H8.2528C11.1916 35.354 13.7697 35.6201 15.9892 36.4103C18.2086 37.2005 19.9793 38.2958 21.3052 39.6858C22.6019 41.0379 23.6088 42.6401 24.2645 44.3942C24.9257 46.2132 25.2547 48.1359 25.2359 50.0709C25.2359 54.5883 23.7235 58.3155 20.6986 61.2525C17.7024 64.1881 13.4391 65.6559 7.90851 65.6559C6.69665 65.6559 5.51553 65.6408 4.36515 65.6108C3.23937 65.5835 1.9428 65.5699 0.475453 65.5699ZM8.16673 38.6765C7.64824 38.6765 4.0475 38.8075 3.67246 38.8075V62.1164C4.42253 62.1164 7.97613 62.2044 8.03762 62.2044C12.2142 62.2044 15.4843 61.0962 17.8479 58.8798C20.1801 56.6348 21.3469 53.7005 21.3483 50.0771C21.3483 46.6829 20.2102 43.935 17.934 41.8332C15.6578 39.7315 12.4021 38.6793 8.16673 38.6765Z" fill="#242424"/>
<path d="M52.5241 65.5699H52.0547V35.354H60.3075C63.2463 35.354 65.8244 35.6201 68.0439 36.4103C70.2634 37.2005 72.034 38.2958 73.3579 39.6858C74.6552 41.0378 75.6628 42.64 76.3192 44.3942C76.9804 46.2132 77.3095 48.1359 77.2907 50.0709C77.2907 54.5883 75.7782 58.3155 72.7534 61.2525C69.7476 64.1894 65.4822 65.6579 59.9571 65.6579C58.7452 65.6579 57.5641 65.6429 56.4137 65.6129C55.2839 65.5842 53.9873 65.5699 52.5241 65.5699ZM60.2153 38.6765C59.6968 38.6765 56.0961 38.8075 55.7211 38.8075V62.1164C56.4691 62.1164 60.0247 62.2044 60.0862 62.2044C64.2628 62.2044 67.5322 61.0962 69.8945 58.8798C72.228 56.6348 73.3948 53.7005 73.3948 50.0771C73.3948 46.6829 72.2574 43.935 69.9826 41.8332C67.7078 39.7315 64.4521 38.6793 60.2153 38.6765Z" fill="#242424"/>
<path d="M78.1018 50.461C78.1018 46.0855 79.5569 42.4007 82.467 39.4064C85.3771 36.4121 89.0659 34.9156 93.5335 34.917C97.9684 34.917 101.642 36.3705 104.553 39.2774C107.492 42.1844 108.96 45.9109 108.959 50.4569C108.959 54.8896 107.49 58.6018 104.553 61.5934C101.614 64.529 97.941 65.9968 93.5335 65.9968C89.126 65.9968 85.4372 64.5433 82.467 61.6363C79.5569 58.7349 78.1018 55.0097 78.1018 50.461ZM81.9956 50.461C81.9956 53.8579 83.1043 56.7355 85.3217 59.0938C87.5405 61.3975 90.2778 62.5487 93.5335 62.5473C96.9314 62.5473 99.6967 61.3961 101.829 59.0938C103.991 56.7928 105.071 53.9152 105.071 50.461C105.071 47.0068 103.962 44.1292 101.743 41.8282C99.5245 39.5258 96.7879 38.3746 93.5335 38.3746C90.2204 38.3746 87.4688 39.5115 85.2787 41.7852C83.0886 44.0589 81.9929 46.9508 81.9915 50.461H81.9956Z" fill="#242424"/>
<path d="M129.496 50.461C129.496 46.0855 130.95 42.4007 133.859 39.4064C136.768 36.4121 140.457 34.9156 144.926 34.917C149.363 34.917 153.036 36.3705 155.945 39.2774C158.884 42.1844 160.353 45.9109 160.353 50.4569C160.353 54.8896 158.884 58.6018 155.945 61.5934C153.009 64.529 149.336 65.9968 144.926 65.9968C140.516 65.9968 136.827 64.5433 133.859 61.6363C130.949 58.7349 129.495 55.0097 129.496 50.461ZM133.39 50.461C133.39 53.8579 134.499 56.7355 136.718 59.0938C138.935 61.3975 141.672 62.5487 144.928 62.5473C148.328 62.5473 151.094 61.3961 153.226 59.0938C155.386 56.7928 156.466 53.9152 156.468 50.461C156.469 47.0068 155.36 44.1292 153.14 41.8282C150.919 39.5258 148.18 38.3746 144.922 38.3746C141.61 38.3746 138.859 39.5115 136.669 41.7852C134.479 44.0589 133.384 46.9508 133.384 50.461H133.39Z" fill="#242424"/>
<path d="M181.025 35.354H184.741L172.295 65.748H169.573L156.824 35.354H160.757L171.043 60.2207L181.025 35.354Z" fill="#242424"/>
<path d="M177.55 65.7463H173.832L186.839 35.3564H189.993L203.001 65.7463H199.07L195.176 56.5935H181.394L177.55 65.7463ZM193.754 53.14L188.309 40.243L182.864 53.14H193.754Z" fill="#242424"/>
<path d="M57.6232 18.2165C58.238 18.1449 58.8057 18.0671 59.3242 17.9791C61.2301 17.6515 62.7384 16.5133 63.9496 15.0455C65.2448 13.5443 65.8924 11.6738 65.8924 9.43427C65.8924 3.44841 62.306 0.520996 55.1312 0.520996H47.0075L47.0382 52.2176C47.0382 55.5544 46.3401 58.1011 44.9438 59.8575C43.5475 61.614 41.5664 62.4915 39.0006 62.4902C36.1766 62.4902 33.9947 61.5621 32.455 59.706C30.9152 57.85 30.1446 55.2671 30.1433 51.9576V35.3389H26.4688V52.6434C26.4688 56.9615 27.6068 60.2567 29.883 62.5291C32.1592 64.8014 35.1984 65.9417 39.0006 65.9498C42.3725 65.9498 45.1672 64.871 47.3846 62.7133C49.602 60.5536 50.6964 57.3027 50.6964 52.9566V15.2604L64.7899 30.6857H69.7637L57.6232 18.2165ZM54.7213 15.24H50.6964V3.995C53.2314 3.93768 54.627 3.90902 54.9181 3.90902C59.6398 3.90902 62.002 5.7651 62.0048 9.47726C62.0048 11.1723 61.3135 12.5671 59.9308 13.6616C58.6028 14.6975 57.0084 15.2154 55.1455 15.24H54.7213Z" fill="#242424"/>
<path d="M120.604 53.0826C121.219 53.0089 121.786 52.9312 122.307 52.8452C124.211 52.5156 125.719 51.3774 126.93 49.9116C128.226 48.4104 128.874 46.5393 128.875 44.2983C128.875 38.3138 125.287 35.323 118.112 35.3257H109.988V65.6235H113.663V50.1184L127.517 65.2898H132.494L120.604 53.0826ZM113.677 50.104V50.0856L113.663 38.8611C116.197 38.8011 117.609 38.7717 117.899 38.7731C122.621 38.7731 124.983 40.6292 124.988 44.3413C124.988 46.0364 124.293 47.4366 122.912 48.5257C121.584 49.5615 119.989 50.0795 118.128 50.104H113.677Z" fill="#242424"/>
<path d="M186.63 27.3322H120.708L109.153 0.526855H105.997L92.9922 30.7141H96.7077L100.554 21.5633H114.338L118.232 30.7141H188.042L186.63 27.3322ZM102.024 18.1098L107.467 5.20254L112.92 18.1098H102.024Z" fill="#242424"/>
<path d="M131.282 17.0269H130.691V17.8232H131.282V17.0269Z" fill="#242424"/>
<path d="M131.252 18.834H130.715V23.4646H131.252V18.834Z" fill="#242424"/>
<path d="M133.162 18.8303V19.4792C133.362 19.268 133.587 19.0824 133.832 18.9265C134.079 18.7779 134.364 18.7032 134.652 18.7116C134.925 18.7073 135.195 18.756 135.449 18.8549C135.699 18.9654 135.913 19.1451 136.064 19.3728C136.169 19.5254 136.239 19.6995 136.269 19.8825C136.285 20.0627 136.294 20.249 136.294 20.4373V23.4671H135.757V20.4394C135.785 20.1032 135.686 19.7687 135.48 19.5018C135.291 19.297 134.988 19.1885 134.558 19.1885C134.403 19.1874 134.25 19.2116 134.103 19.2602C133.972 19.3123 133.848 19.3811 133.734 19.4649C133.624 19.5445 133.528 19.6413 133.449 19.7515C133.374 19.8562 133.313 19.9705 133.269 20.0913C133.217 20.2298 133.184 20.3743 133.17 20.5212C133.17 20.6543 133.154 20.8058 133.154 20.9675V23.4609H132.617V18.8303H133.162Z" fill="#242424"/>
<path d="M138.971 23.5447C138.854 23.5737 138.734 23.5882 138.614 23.5877C138.503 23.5986 138.391 23.586 138.285 23.5508C138.179 23.5155 138.082 23.4583 137.999 23.383C137.856 23.2479 137.794 23.0166 137.794 22.6685V19.2764H137.141V18.8301H137.794V17.5425H138.331V18.8301H139.2V19.2764H138.331V22.4515C138.331 22.5682 138.331 22.6563 138.331 22.7463C138.338 22.8169 138.356 22.8859 138.385 22.951C138.418 23.0042 138.469 23.0446 138.528 23.0657C138.612 23.0949 138.7 23.1074 138.788 23.1025C138.863 23.1001 138.938 23.094 139.012 23.0841C139.081 23.0736 139.149 23.0585 139.217 23.0391V23.4772C139.167 23.4915 139.079 23.5161 138.971 23.5447Z" fill="#242424"/>
<path d="M142.885 22.8257C142.623 23.0159 142.305 23.1138 141.981 23.1041C141.745 23.1067 141.513 23.0548 141.3 22.9526C141.11 22.8612 140.944 22.7257 140.817 22.5575C140.679 22.3866 140.578 22.1885 140.522 21.9761C140.456 21.7471 140.423 21.5101 140.423 21.2719H144.022C144.022 20.4387 143.852 19.7959 143.485 19.3578C143.301 19.141 143.07 18.9694 142.809 18.8562C142.548 18.7429 142.265 18.6911 141.981 18.7048C141.672 18.6999 141.366 18.7642 141.085 18.8931C140.83 19.0194 140.604 19.1988 140.423 19.4192C140.236 19.6537 140.093 19.921 140.003 20.2074C139.902 20.5158 139.85 20.8386 139.852 21.1634C139.851 21.4835 139.893 21.8022 139.977 22.1112C140.051 22.3915 140.182 22.6535 140.362 22.881C140.536 23.1057 140.764 23.2837 141.024 23.3989C141.574 23.6197 142.183 23.645 142.749 23.4705C142.96 23.3978 143.155 23.2852 143.323 23.1389C143.488 23.0012 143.627 22.8347 143.733 22.6476C143.845 22.4545 143.931 22.2481 143.991 22.0334H143.393C143.326 22.3505 143.145 22.6322 142.885 22.8257ZM140.587 20.1971C140.661 20.008 140.766 19.8329 140.899 19.6792C141.026 19.5271 141.185 19.4048 141.364 19.321C141.56 19.2287 141.775 19.1832 141.991 19.1879C142.209 19.1855 142.425 19.228 142.626 19.3128C142.804 19.3959 142.962 19.5143 143.092 19.6608C143.214 19.8163 143.308 19.9924 143.368 20.1808C143.431 20.3893 143.461 20.606 143.458 20.8236H140.423C140.449 20.6082 140.504 20.3974 140.587 20.1971Z" fill="#242424"/>
<path d="M145.639 18.8319V19.6998H145.655C145.763 19.3863 145.967 19.1143 146.237 18.9219C146.522 18.7663 146.844 18.6919 147.168 18.707V19.2884C146.909 19.2728 146.65 19.322 146.415 19.4317C146.228 19.5262 146.068 19.6672 145.95 19.8411C145.828 20.0269 145.747 20.2361 145.71 20.4552C145.662 20.6993 145.638 20.9475 145.639 21.1963V23.4666H145.098V18.8319H145.639Z" fill="#242424"/>
<path d="M148.696 17.0269H148.105V17.8232H148.696V17.0269Z" fill="#242424"/>
<path d="M148.67 18.834H148.133V23.4646H148.67V18.834Z" fill="#242424"/>
<path d="M153.908 20.1919C153.823 19.9089 153.683 19.6449 153.498 19.414C153.313 19.1964 153.084 19.02 152.826 18.8961C152.527 18.7719 152.206 18.708 151.882 18.708C151.559 18.708 151.238 18.7719 150.939 18.8961C150.678 19.0195 150.449 19.1992 150.267 19.4222C150.081 19.6499 149.942 19.9113 149.857 20.1919C149.766 20.5025 149.721 20.8245 149.723 21.148C149.715 21.5102 149.773 21.8709 149.894 22.2125C149.995 22.4947 150.154 22.7531 150.359 22.972C150.546 23.1757 150.779 23.3322 151.039 23.4285C151.306 23.5282 151.587 23.5822 151.871 23.5882C152.176 23.5947 152.478 23.5339 152.757 23.4101C153.017 23.2982 153.249 23.1305 153.437 22.9187C153.63 22.6939 153.776 22.4329 153.867 22.1511C153.971 21.8269 154.022 21.4882 154.019 21.148C154.024 20.8258 153.987 20.5043 153.908 20.1919ZM153.371 21.8726C153.313 22.0949 153.22 22.3065 153.095 22.4991C152.972 22.6826 152.806 22.8331 152.611 22.9372C152.388 23.055 152.138 23.1136 151.886 23.1071C151.651 23.1135 151.418 23.0644 151.205 22.9638C151.012 22.866 150.844 22.7261 150.713 22.5543C150.574 22.3721 150.473 22.163 150.418 21.9402C150.344 21.6841 150.307 21.4186 150.31 21.152C150.309 20.9049 150.339 20.6587 150.4 20.4192C150.457 20.1969 150.551 19.9858 150.678 19.7948C150.806 19.6126 150.973 19.462 151.168 19.3547C151.391 19.2431 151.637 19.1882 151.886 19.195C152.136 19.1885 152.384 19.2403 152.611 19.3465C152.803 19.4426 152.968 19.583 153.095 19.7559C153.224 19.9465 153.317 20.1587 153.371 20.3823C153.434 20.6333 153.464 20.8914 153.459 21.15C153.462 21.3937 153.433 21.6368 153.371 21.8726Z" fill="#242424"/>
<path d="M155.584 18.8323V19.7003H155.6C155.709 19.3871 155.912 19.1154 156.182 18.9224C156.467 18.7668 156.79 18.6925 157.115 18.7075V19.2888C156.856 19.2731 156.597 19.3224 156.363 19.4321C156.175 19.526 156.014 19.6671 155.897 19.8416C155.775 20.0273 155.693 20.2364 155.656 20.4557C155.608 20.7 155.584 20.9481 155.584 21.1968V23.4671H155.047V18.8323H155.584Z" fill="#242424"/>
<path d="M164.07 17.0244V19.5731C163.901 19.2924 163.656 19.0658 163.363 18.9201C163.066 18.7781 162.742 18.7046 162.414 18.7051C162.098 18.6992 161.785 18.7694 161.502 18.9098C161.249 19.0382 161.029 19.2215 160.856 19.4462C160.679 19.6812 160.549 19.9481 160.473 20.2323C160.389 20.5357 160.347 20.8491 160.348 21.1637C160.344 21.4861 160.383 21.8075 160.463 22.1198C160.536 22.3989 160.664 22.6606 160.84 22.8895C161.009 23.1114 161.23 23.2891 161.483 23.4074C161.784 23.54 162.111 23.6037 162.44 23.5937C162.595 23.5956 162.749 23.5749 162.897 23.5323C163.055 23.4882 163.208 23.4285 163.354 23.3542C163.502 23.2718 163.64 23.1721 163.764 23.0574C163.883 22.9372 163.983 22.799 164.059 22.6479H164.078V23.4668H164.615V17.0244H164.07ZM163.971 21.9048C163.91 22.1308 163.808 22.3433 163.668 22.5312C163.538 22.7077 163.369 22.852 163.174 22.953C162.965 23.0543 162.736 23.1062 162.504 23.1044C162.288 23.1053 162.075 23.0621 161.877 22.9775C161.688 22.8969 161.518 22.7785 161.377 22.6295C161.228 22.4636 161.115 22.2693 161.045 22.0583C160.959 21.8109 160.916 21.5505 160.92 21.2886C160.907 21.0137 160.931 20.7383 160.991 20.4698C161.045 20.2333 161.142 20.009 161.278 19.8085C161.409 19.6209 161.58 19.4649 161.778 19.352C162.004 19.2414 162.253 19.1866 162.504 19.1923C162.733 19.1905 162.96 19.2424 163.166 19.3438C163.355 19.4517 163.521 19.594 163.658 19.7635C163.794 19.949 163.898 20.1568 163.963 20.3776C164.035 20.6216 164.071 20.8747 164.07 21.1289C164.071 21.3914 164.038 21.6529 163.971 21.9069V21.9048Z" fill="#242424"/>
<path d="M168.754 22.8257C168.492 23.0159 168.174 23.1138 167.85 23.1041C167.615 23.1067 167.383 23.0549 167.172 22.9526C166.981 22.8617 166.815 22.7262 166.688 22.5575C166.548 22.3873 166.447 22.189 166.391 21.9761C166.327 21.7468 166.294 21.5099 166.294 21.2719H169.893C169.893 20.4387 169.723 19.7959 169.356 19.3578C169.172 19.141 168.941 18.9694 168.68 18.8562C168.419 18.7429 168.136 18.6911 167.852 18.7048C167.544 18.6996 167.238 18.764 166.958 18.8931C166.702 19.0189 166.477 19.1984 166.296 19.4192C166.107 19.6531 165.964 19.9205 165.874 20.2074C165.773 20.5158 165.721 20.8386 165.723 21.1634C165.722 21.4835 165.764 21.8022 165.848 22.1112C165.923 22.3912 166.054 22.653 166.233 22.881C166.408 23.1053 166.635 23.2832 166.895 23.3989C167.446 23.6197 168.055 23.645 168.623 23.4705C168.833 23.3978 169.027 23.2852 169.194 23.1389C169.359 23.0012 169.498 22.8347 169.604 22.6476C169.716 22.4542 169.803 22.2479 169.864 22.0334H169.264C169.197 22.3512 169.016 22.6333 168.754 22.8257ZM166.446 20.1971C166.52 20.0075 166.626 19.8323 166.76 19.6792C166.886 19.5267 167.045 19.4043 167.225 19.321C167.417 19.2301 167.627 19.1846 167.84 19.1879C168.058 19.1853 168.274 19.2278 168.475 19.3128C168.652 19.3959 168.811 19.5143 168.94 19.6608C169.062 19.8167 169.157 19.9926 169.219 20.1808C169.28 20.3895 169.311 20.6061 169.309 20.8236H166.294C166.315 20.6086 166.366 20.3977 166.446 20.1971Z" fill="#242424"/>
<path d="M171.712 22.8529C171.985 23.0391 172.313 23.1278 172.642 23.1047C172.815 23.1069 172.987 23.0828 173.153 23.033C173.284 22.9886 173.406 22.919 173.511 22.8283C173.596 22.7525 173.665 22.6615 173.716 22.5601C173.762 22.4583 173.785 22.3482 173.786 22.2367C173.793 22.142 173.779 22.0469 173.743 21.9588C173.708 21.8707 173.652 21.792 173.581 21.729C173.412 21.611 173.224 21.5231 173.026 21.469C172.79 21.4026 172.55 21.3486 172.308 21.3073C172.063 21.2657 171.823 21.197 171.593 21.1026C171.382 21.0217 171.194 20.8903 171.046 20.7197C170.886 20.5196 170.807 20.2669 170.825 20.0114C170.822 19.8331 170.858 19.6564 170.931 19.4936C171.004 19.3309 171.112 19.1862 171.247 19.0697C171.589 18.8061 172.015 18.6759 172.446 18.7033C172.88 18.6806 173.311 18.7967 173.675 19.0349C173.991 19.2581 174.177 19.6327 174.241 20.1609H173.694C173.686 20.0118 173.646 19.8662 173.575 19.7349C173.504 19.6035 173.404 19.4895 173.284 19.4014C173.026 19.2535 172.731 19.1824 172.433 19.1967C172.158 19.1756 171.884 19.2478 171.655 19.4014C171.568 19.4711 171.499 19.5598 171.452 19.6607C171.406 19.7615 171.383 19.8717 171.386 19.9828C171.381 20.074 171.398 20.1651 171.437 20.2477C171.476 20.3304 171.536 20.4019 171.61 20.4557C171.771 20.5826 171.957 20.674 172.157 20.7238C172.391 20.7997 172.63 20.8626 172.872 20.9122C173.116 20.9618 173.355 21.0373 173.583 21.1374C173.796 21.2307 173.986 21.3706 174.138 21.5468C174.288 21.7467 174.361 21.9938 174.343 22.2428C174.349 22.446 174.299 22.6469 174.2 22.8242C174.104 22.9954 173.969 23.1419 173.806 23.2521C173.626 23.3711 173.426 23.459 173.216 23.512C172.966 23.5683 172.71 23.5951 172.454 23.5919C172.208 23.5986 171.962 23.5598 171.73 23.4772C171.529 23.3979 171.344 23.2828 171.183 23.1374C171.034 22.9962 170.915 22.8254 170.835 22.6359C170.749 22.442 170.7 22.2336 170.691 22.0217H171.237C171.283 22.3492 171.453 22.6466 171.712 22.8529Z" fill="#242424"/>
<path d="M176.059 17.0269H175.469V17.8232H176.059V17.0269Z" fill="#242424"/>
<path d="M176.037 18.8345H175.5V23.4651H176.037V18.8345Z" fill="#242424"/>
<path d="M180.986 18.8304V19.6493H180.96C180.883 19.4983 180.784 19.3602 180.665 19.2399C180.541 19.1251 180.403 19.0261 180.255 18.9451C180.109 18.8699 179.956 18.8102 179.798 18.767C179.649 18.7237 179.495 18.7023 179.341 18.7035C179.012 18.6942 178.685 18.7586 178.384 18.8919C178.132 19.0094 177.912 19.1839 177.74 19.4016C177.565 19.6337 177.437 19.898 177.363 20.1795C177.282 20.4917 177.243 20.8131 177.246 21.1355C177.247 21.4495 177.289 21.762 177.371 22.0649C177.449 22.3464 177.58 22.6105 177.757 22.8428C177.929 23.0675 178.15 23.2508 178.402 23.3792C178.683 23.5245 178.998 23.595 179.314 23.5839C179.644 23.5856 179.969 23.5091 180.263 23.3608C180.558 23.2222 180.804 22.9982 180.97 22.718C180.977 22.9805 180.965 23.2432 180.935 23.5041C180.905 23.7454 180.829 23.9787 180.712 24.1919C180.594 24.4005 180.42 24.5716 180.21 24.6853C179.938 24.8214 179.636 24.8855 179.333 24.8716C179.177 24.8736 179.021 24.8619 178.867 24.8368C178.725 24.8169 178.587 24.7747 178.457 24.7119C178.333 24.6483 178.224 24.5598 178.136 24.4519C178.039 24.3244 177.97 24.1789 177.931 24.0241H177.357C177.374 24.18 177.419 24.3314 177.492 24.4703C177.582 24.6333 177.7 24.7789 177.841 24.9002C178.02 25.0445 178.223 25.156 178.441 25.2298C178.725 25.3184 179.021 25.3606 179.318 25.3547C179.688 25.3683 180.056 25.3049 180.4 25.1684C180.66 25.0513 180.887 24.8728 181.062 24.6484C181.228 24.4288 181.344 24.176 181.402 23.9074C181.465 23.6134 181.495 23.3134 181.493 23.0128V18.8304H180.986ZM180.88 21.9012C180.819 22.1237 180.715 22.3323 180.574 22.5153C180.443 22.6865 180.275 22.8263 180.083 22.9247C179.879 23.0333 179.651 23.0889 179.421 23.0865C179.168 23.0932 178.918 23.0347 178.695 22.9165C178.495 22.8087 178.323 22.6551 178.193 22.4682C178.056 22.2653 177.959 22.0381 177.908 21.7988C177.846 21.5305 177.822 21.2549 177.837 20.9799C177.833 20.7147 177.875 20.4509 177.962 20.2C178.032 19.9916 178.145 19.8 178.294 19.637C178.434 19.4852 178.604 19.3639 178.794 19.2808C178.992 19.1996 179.206 19.1599 179.421 19.1641C179.645 19.1592 179.868 19.2077 180.071 19.3056C180.273 19.4034 180.449 19.5479 180.585 19.7271C180.722 19.9161 180.825 20.1283 180.888 20.3535C180.954 20.6103 180.987 20.8745 180.986 21.1396C180.991 21.3988 180.955 21.6571 180.88 21.9053V21.9012Z" fill="#242424"/>
<path d="M183.418 18.8304V19.4793C183.618 19.2681 183.844 19.0824 184.09 18.9266C184.337 18.7773 184.622 18.7027 184.91 18.7117C185.182 18.7074 185.453 18.7561 185.707 18.855C185.958 18.9646 186.171 19.1445 186.322 19.3729C186.427 19.5255 186.497 19.6996 186.527 19.8826C186.543 20.0628 186.553 20.2491 186.553 20.4374V23.4672H186.017V20.4395C186.045 20.1031 185.945 19.7685 185.738 19.5019C185.551 19.2972 185.246 19.1887 184.818 19.1887C184.662 19.1874 184.508 19.2116 184.361 19.2603C184.23 19.312 184.106 19.3808 183.994 19.465C183.883 19.544 183.786 19.6409 183.707 19.7516C183.632 19.8559 183.572 19.9703 183.529 20.0914C183.477 20.2298 183.443 20.3743 183.428 20.5213C183.428 20.6544 183.412 20.8059 183.412 20.9676V23.461H182.875V18.8304H183.418Z" fill="#242424"/>
</g>
<defs>
<clipPath id="clip0_195_66">
<rect width="203" height="66" fill="white"/>
</clipPath>
</defs>
</svg>
