<svg width="25" height="25" viewBox="0 0 25 25" fill="none" xmlns="http://www.w3.org/2000/svg">
<path d="M2.6046 9.59086L19.7843 3.22269L19.7999 3.21781C20.0764 3.1226 20.3741 3.10691 20.6592 3.17252C20.9442 3.23814 21.205 3.38243 21.4121 3.58898C21.6191 3.79553 21.7641 4.05604 21.8304 4.34088C21.8967 4.62573 21.8818 4.92347 21.7872 5.20023C21.786 5.20557 21.7844 5.21079 21.7823 5.21586L15.4093 22.3955C15.3046 22.7019 15.1061 22.9674 14.8419 23.1545C14.5777 23.3415 14.2613 23.4406 13.9376 23.4375H13.9083C13.5782 23.435 13.2577 23.3265 12.994 23.128C12.7302 22.9295 12.5372 22.6515 12.4435 22.335L10.1427 14.8584L2.66613 12.5577C2.35197 12.461 2.0763 12.2677 1.87833 12.0053C1.68037 11.7429 1.5702 11.4248 1.56349 11.0961C1.55679 10.7675 1.65388 10.4451 1.84098 10.1749C2.02807 9.90463 2.29563 9.70026 2.60558 9.59086H2.6046ZM3.12511 11.0645L10.6017 13.3653C10.8451 13.4403 11.0664 13.5736 11.2465 13.7537C11.4266 13.9337 11.5599 14.1551 11.6349 14.3985L13.9357 21.875L13.9415 21.8584L20.3126 4.68754L3.14269 11.0567L3.12706 11.0625L3.12511 11.0645Z" fill="#242424" fill-opacity="0.5"/>
</svg>
