<svg width="50" height="50" viewBox="0 0 50 50" fill="none" xmlns="http://www.w3.org/2000/svg">
<path d="M42.1875 12.6956H35.5469L33.9648 8.26196C33.8555 7.95858 33.6552 7.69635 33.3913 7.51107C33.1274 7.3258 32.8127 7.22652 32.4902 7.22681H17.5098C16.8506 7.22681 16.2598 7.64185 16.04 8.26196L14.4531 12.6956H7.8125C5.6543 12.6956 3.90625 14.4436 3.90625 16.6018V38.8674C3.90625 41.0256 5.6543 42.7737 7.8125 42.7737H42.1875C44.3457 42.7737 46.0938 41.0256 46.0938 38.8674V16.6018C46.0938 14.4436 44.3457 12.6956 42.1875 12.6956ZM25 34.9612C20.6836 34.9612 17.1875 31.4651 17.1875 27.1487C17.1875 22.8323 20.6836 19.3362 25 19.3362C29.3164 19.3362 32.8125 22.8323 32.8125 27.1487C32.8125 31.4651 29.3164 34.9612 25 34.9612ZM20.3125 27.1487C20.3125 28.3919 20.8064 29.5842 21.6854 30.4632C22.5645 31.3423 23.7568 31.8362 25 31.8362C26.2432 31.8362 27.4355 31.3423 28.3146 30.4632C29.1936 29.5842 29.6875 28.3919 29.6875 27.1487C29.6875 25.9055 29.1936 24.7132 28.3146 23.8341C27.4355 22.955 26.2432 22.4612 25 22.4612C23.7568 22.4612 22.5645 22.955 21.6854 23.8341C20.8064 24.7132 20.3125 25.9055 20.3125 27.1487Z" fill="white"/>
</svg>
