<svg width="50" height="50" viewBox="0 0 50 50" fill="none" xmlns="http://www.w3.org/2000/svg">
<path d="M22.2305 31.4525C21.1763 37.1317 19.893 42.5775 16.0846 45.4213C14.9117 36.8379 17.8117 30.39 19.1576 23.5463C16.8617 19.5671 19.4346 11.5567 24.2763 13.5296C30.2346 15.9588 19.1159 28.3254 26.5805 29.8713C34.3742 31.4838 37.5576 15.9483 32.7242 10.8942C25.7409 3.60043 12.3971 10.7296 14.0388 21.1733C14.4388 23.7275 16.9992 24.5025 15.0617 28.0275C10.593 27.0046 9.25965 23.3754 9.43256 18.5358C9.70756 10.6192 16.343 5.07335 22.9971 4.30668C31.4138 3.33585 39.3117 7.48793 40.4013 15.64C41.6305 24.84 36.6034 34.8067 27.6055 34.0879C25.1659 33.8942 24.1409 32.6504 22.2305 31.4525Z" fill="white"/>
</svg>
