<svg width="1518" height="49" viewBox="0 0 1518 49" fill="none" xmlns="http://www.w3.org/2000/svg">
<path d="M23.7114 35.6826V41H4.85889V35.6826H23.7114ZM6.68262 35.6826V48.8662H0.640137L0.288574 35.6826H6.68262ZM28.3696 35.6826L27.7983 48.8662H21.9097V35.6826H28.3696ZM20.3936 9.00781V14.3472H7.47363V9.00781H20.3936ZM25.0298 9.00781V41H18.6357V9.00781H25.0298ZM6.70459 9.00781H13.1206L12.3296 22.1035C12.2124 24.2715 12.0146 26.1831 11.7363 27.8384C11.4727 29.479 11.1431 30.9146 10.7476 32.145C10.3667 33.3755 9.94189 34.4521 9.47314 35.375C9.00439 36.2832 8.50635 37.0742 7.979 37.748C7.45166 38.4072 6.90967 39.0005 6.35303 39.5278C5.79639 40.0552 5.24707 40.5459 4.70508 41H1.21143V35.6826H2.44189C2.80811 35.3311 3.17432 34.855 3.54053 34.2544C3.90674 33.6392 4.24365 32.8262 4.55127 31.8154C4.85889 30.8047 5.12988 29.5083 5.36426 27.9263C5.59863 26.3442 5.78174 24.4033 5.91357 22.1035L6.70459 9.00781ZM118.752 29.2446L128.75 9.00781H134.858V41H128.64V21.0049L118.73 41H112.512V9.00781H118.752V29.2446ZM231.524 25.6851H227.284V22.1035H230.558C231.349 22.1035 231.986 21.9277 232.469 21.5762C232.953 21.2246 233.304 20.7266 233.524 20.082C233.758 19.4375 233.875 18.6831 233.875 17.8188C233.875 17.1011 233.744 16.4492 233.48 15.8633C233.216 15.2773 232.806 14.8086 232.25 14.457C231.708 14.0908 231.019 13.9077 230.184 13.9077C229.54 13.9077 228.961 14.0615 228.448 14.3691C227.936 14.6621 227.525 15.0942 227.218 15.6655C226.925 16.2222 226.778 16.8887 226.778 17.665H220.384C220.384 16.2441 220.641 14.9771 221.153 13.8638C221.681 12.7505 222.398 11.7983 223.307 11.0073C224.215 10.2163 225.255 9.61572 226.427 9.20557C227.613 8.79541 228.858 8.59033 230.162 8.59033C231.7 8.59033 233.084 8.78809 234.315 9.18359C235.56 9.56445 236.622 10.1357 237.501 10.8975C238.395 11.6592 239.076 12.6113 239.544 13.7539C240.028 14.8818 240.27 16.1929 240.27 17.687C240.27 18.7856 240.057 19.8184 239.632 20.7852C239.222 21.752 238.622 22.6016 237.831 23.334C237.054 24.0664 236.131 24.645 235.062 25.0698C234.007 25.48 232.828 25.6851 231.524 25.6851ZM227.284 23.7295H231.524C232.96 23.7295 234.234 23.9126 235.348 24.2788C236.476 24.645 237.435 25.1797 238.226 25.8828C239.032 26.5859 239.64 27.4575 240.05 28.4976C240.475 29.5229 240.687 30.7021 240.687 32.0352C240.687 33.5293 240.423 34.8623 239.896 36.0342C239.383 37.1914 238.658 38.1729 237.721 38.9785C236.783 39.7842 235.67 40.3921 234.381 40.8022C233.106 41.2124 231.7 41.4175 230.162 41.4175C228.932 41.4175 227.716 41.2417 226.515 40.8901C225.313 40.5239 224.222 39.9673 223.241 39.2202C222.259 38.4731 221.476 37.5137 220.89 36.3418C220.304 35.1699 220.011 33.7637 220.011 32.123H226.449C226.449 32.8555 226.603 33.5293 226.91 34.1445C227.232 34.7598 227.672 35.2432 228.229 35.5947C228.8 35.9463 229.452 36.1221 230.184 36.1221C231.048 36.1221 231.781 35.939 232.381 35.5728C232.997 35.2065 233.465 34.7085 233.788 34.0786C234.11 33.4341 234.271 32.7236 234.271 31.9473C234.271 31.0977 234.19 30.3799 234.029 29.7939C233.868 29.1934 233.626 28.71 233.304 28.3438C232.997 27.9629 232.608 27.6846 232.14 27.5088C231.686 27.333 231.151 27.2451 230.536 27.2451H227.284V23.7295ZM337.947 14.7207L331.069 41H324.28L334.277 9.00781H338.518L337.947 14.7207ZM343.374 41L336.453 14.7207L335.815 9.00781H340.122L350.208 41H343.374ZM343.616 29.0688V34.4082H329.18V29.0688H343.616ZM440.282 29.2446L450.28 9.00781H456.388V41H450.17V21.0049L440.26 41H434.042V9.00781H440.282V29.2446ZM448.324 0.570312H452.851C452.851 1.85938 452.536 2.99463 451.906 3.97607C451.291 4.94287 450.412 5.70459 449.269 6.26123C448.141 6.81787 446.801 7.09619 445.248 7.09619C442.904 7.09619 441.051 6.48828 439.689 5.27246C438.327 4.05664 437.646 2.48926 437.646 0.570312H442.128C442.128 1.33203 442.362 2.00586 442.831 2.5918C443.3 3.17773 444.105 3.4707 445.248 3.4707C446.376 3.4707 447.167 3.17773 447.621 2.5918C448.09 2.00586 448.324 1.33203 448.324 0.570312ZM560.284 21.9717V27.2891H547.166V21.9717H560.284ZM548.99 9.00781V41H542.552V9.00781H548.99ZM564.942 9.00781V41H558.57V9.00781H564.942ZM657.214 29.2446L667.211 9.00781H673.32V41H667.102V21.0049L657.192 41H650.974V9.00781H657.214V29.2446ZM777.215 21.9717V27.2891H764.098V21.9717H777.215ZM765.921 9.00781V41H759.483V9.00781H765.921ZM781.874 9.00781V41H775.501V9.00781H781.874ZM880.21 9.00781V41H873.816V9.00781H880.21ZM888.164 9.00781V14.3472H866.016V9.00781H888.164ZM991.247 35.6826V41H977.338V35.6826H991.247ZM979.337 9.00781V41H972.899V9.00781H979.337ZM989.379 21.9717V27.1353H977.338V21.9717H989.379ZM991.203 9.00781V14.3472H977.338V9.00781H991.203ZM1086.9 29.728H1080.35V24.3887H1086.9C1087.81 24.3887 1088.55 24.1836 1089.12 23.7734C1089.71 23.3633 1090.13 22.7993 1090.4 22.0815C1090.66 21.3491 1090.79 20.5288 1090.79 19.6206C1090.79 18.6978 1090.65 17.8408 1090.37 17.0498C1090.11 16.2441 1089.69 15.5923 1089.12 15.0942C1088.56 14.5962 1087.83 14.3472 1086.9 14.3472H1082.42V41H1076V9.00781H1086.9C1089.06 9.00781 1090.91 9.46191 1092.46 10.3701C1094.01 11.2783 1095.2 12.5308 1096.02 14.1274C1096.86 15.7095 1097.27 17.5259 1097.27 19.5767C1097.27 21.6421 1096.86 23.4365 1096.02 24.96C1095.2 26.4688 1094.01 27.6406 1092.46 28.4756C1090.91 29.3105 1089.06 29.728 1086.9 29.728ZM1186.89 20.5215H1192.97C1195.11 20.5215 1196.96 20.939 1198.53 21.7739C1200.1 22.6089 1201.31 23.7881 1202.16 25.3115C1203.02 26.835 1203.45 28.6147 1203.45 30.6509C1203.45 32.189 1203.21 33.5879 1202.71 34.8477C1202.22 36.1074 1201.52 37.1987 1200.6 38.1216C1199.69 39.0444 1198.59 39.7549 1197.3 40.2529C1196.03 40.751 1194.58 41 1192.97 41H1182.56V9.00781H1189V35.6826H1192.97C1193.87 35.6826 1194.61 35.4482 1195.21 34.9795C1195.81 34.5107 1196.27 33.8955 1196.58 33.1338C1196.88 32.3721 1197.04 31.5298 1197.04 30.6069C1197.04 29.7134 1196.88 28.9077 1196.58 28.1899C1196.27 27.4722 1195.81 26.9082 1195.21 26.498C1194.61 26.0732 1193.87 25.8608 1192.97 25.8608H1186.89V20.5215ZM1306.67 35.6826V41H1292.76V35.6826H1306.67ZM1294.76 9.00781V41H1288.32V9.00781H1294.76ZM1304.8 21.9717V27.1353H1292.76V21.9717H1304.8ZM1306.62 9.00781V14.3472H1292.76V9.00781H1306.62ZM1402.32 29.728H1395.78V24.3887H1402.32C1403.23 24.3887 1403.97 24.1836 1404.54 23.7734C1405.13 23.3633 1405.55 22.7993 1405.82 22.0815C1406.08 21.3491 1406.21 20.5288 1406.21 19.6206C1406.21 18.6978 1406.07 17.8408 1405.8 17.0498C1405.53 16.2441 1405.11 15.5923 1404.54 15.0942C1403.99 14.5962 1403.25 14.3472 1402.32 14.3472H1397.84V41H1391.43V9.00781H1402.32C1404.48 9.00781 1406.33 9.46191 1407.88 10.3701C1409.44 11.2783 1410.62 12.5308 1411.44 14.1274C1412.28 15.7095 1412.7 17.5259 1412.7 19.5767C1412.7 21.6421 1412.28 23.4365 1411.44 24.96C1410.62 26.4688 1409.44 27.6406 1407.88 28.4756C1406.33 29.3105 1404.48 29.728 1402.32 29.728ZM1505.67 14.7207L1498.79 41H1492L1502 9.00781H1506.24L1505.67 14.7207ZM1511.1 41L1504.18 14.7207L1503.54 9.00781H1507.85L1517.93 41H1511.1ZM1511.34 29.0688V34.4082H1496.9V29.0688H1511.34Z" fill="white"/>
</svg>
