<svg width="50" height="50" viewBox="0 0 50 50" fill="none" xmlns="http://www.w3.org/2000/svg">
<path d="M44.7979 38.2939H40.0458C38.2479 38.2939 37.7062 36.8376 34.4833 33.6126C31.6667 30.898 30.4771 30.5605 29.7646 30.5605C28.7792 30.5605 28.5104 30.8314 28.5104 32.1876V36.4626C28.5104 37.6189 28.1354 38.296 25.1146 38.296C22.1839 38.0991 19.342 37.2088 16.8229 35.6984C14.3037 34.188 12.1794 32.1007 10.625 29.6085C6.93414 25.0148 4.36606 19.6232 3.125 13.8626C3.125 13.1501 3.39583 12.5043 4.75417 12.5043H9.50417C10.725 12.5043 11.1646 13.048 11.6438 14.3043C13.95 21.0918 17.8854 26.996 19.4833 26.996C20.0958 26.996 20.3625 26.7251 20.3625 25.198V18.2064C20.1604 15.0168 18.4667 14.748 18.4667 13.5939C18.4881 13.2894 18.6274 13.0052 18.8549 12.8018C19.0825 12.5983 19.3804 12.4916 19.6854 12.5043H27.1521C28.1729 12.5043 28.5104 13.0126 28.5104 14.2335V23.671C28.5104 24.6897 28.9479 25.0272 29.2563 25.0272C29.8687 25.0272 30.3396 24.6897 31.4625 23.5689C33.8695 20.6334 35.836 17.363 37.3 13.8605C37.4499 13.44 37.7331 13.0801 38.1067 12.8356C38.4802 12.5911 38.9234 12.4755 39.3687 12.5064H44.1208C45.5458 12.5064 45.8479 13.2189 45.5458 14.2355C43.8174 18.1072 41.6788 21.7824 39.1667 25.198C38.6542 25.9793 38.45 26.3855 39.1667 27.3022C39.6375 28.0147 41.3042 29.4064 42.4229 30.7293C44.0521 32.3543 45.4042 34.2335 46.4271 36.2918C46.8354 37.6168 46.1542 38.2939 44.7979 38.2939Z" fill="white"/>
</svg>
