<svg width="50" height="50" viewBox="0 0 50 50" fill="none" xmlns="http://www.w3.org/2000/svg">
<path d="M25.0013 4.16699C36.5076 4.16699 45.8347 13.4941 45.8347 25.0003C45.8347 36.5066 36.5076 45.8337 25.0013 45.8337C21.3196 45.8396 17.7027 44.8653 14.5222 43.0107L4.17633 45.8337L6.993 35.4837C5.13694 32.3021 4.16185 28.6837 4.168 25.0003C4.168 13.4941 13.4951 4.16699 25.0013 4.16699ZM17.9013 15.2087L17.4847 15.2253C17.2149 15.2418 16.9513 15.3126 16.7097 15.4337C16.4837 15.5616 16.2774 15.7216 16.0972 15.9087C15.8472 16.1441 15.7055 16.3482 15.5534 16.5462C14.7828 17.548 14.3679 18.7781 14.3742 20.042C14.3784 21.0628 14.6451 22.0566 15.0617 22.9857C15.9138 24.8649 17.3159 26.8545 19.1659 28.6982C19.6117 29.142 20.0492 29.5878 20.5201 30.0024C22.8188 32.0263 25.5581 33.4858 28.5201 34.2649L29.7034 34.4462C30.0888 34.467 30.4742 34.4378 30.8617 34.4191C31.4685 34.3878 32.0609 34.2235 32.5972 33.9378C32.87 33.7973 33.1362 33.6444 33.3951 33.4795C33.3951 33.4795 33.4847 33.4212 33.6555 33.292C33.9367 33.0837 34.1097 32.9357 34.343 32.692C34.5159 32.5128 34.6659 32.3024 34.7805 32.0628C34.943 31.7232 35.1055 31.0753 35.1722 30.5357C35.2222 30.1232 35.2076 29.8982 35.2013 29.7587C35.193 29.5357 35.0076 29.3045 34.8055 29.2066L33.593 28.6628C33.593 28.6628 31.7805 27.8732 30.6722 27.3691C30.5562 27.3184 30.4319 27.2895 30.3055 27.2837C30.163 27.269 30.0189 27.2851 29.8831 27.3307C29.7473 27.3763 29.6228 27.4505 29.518 27.5482C29.5076 27.5441 29.368 27.6628 27.8617 29.4878C27.7753 29.604 27.6562 29.6918 27.5197 29.74C27.3831 29.7883 27.2353 29.7947 27.0951 29.7587C26.9594 29.7223 26.8264 29.6763 26.6972 29.6212C26.4388 29.5128 26.3492 29.4712 26.1722 29.3962C24.9765 28.8744 23.8694 28.1694 22.8909 27.3066C22.6284 27.0774 22.3847 26.8274 22.1347 26.5857C21.3151 25.8008 20.6008 24.9128 20.0097 23.9441L19.8867 23.7462C19.7985 23.6132 19.7271 23.4697 19.6742 23.3191C19.5951 23.0128 19.8013 22.767 19.8013 22.767C19.8013 22.767 20.3076 22.2128 20.543 21.9128C20.7722 21.6212 20.9659 21.3378 21.0909 21.1357C21.3367 20.7399 21.4138 20.3337 21.2847 20.0191C20.7013 18.5941 20.0972 17.1753 19.4763 15.767C19.3534 15.4878 18.9888 15.2878 18.6576 15.2482C18.5451 15.2357 18.4326 15.2232 18.3201 15.2149C18.0403 15.201 17.7599 15.2038 17.4805 15.2232L17.8992 15.2066L17.9013 15.2087Z" fill="white"/>
</svg>
